<svg width="37" height="37" viewBox="0 0 37 37" fill="none" xmlns="http://www.w3.org/2000/svg">
<rect width="36.3387" height="36.3387" rx="6.05645" fill="#ECF0FF"/>
<path d="M16.2949 10.7408C16.7868 10.4604 17.3498 10.3123 17.9235 10.3123C18.4972 10.3123 19.0602 10.4604 19.5522 10.7408L25.0696 13.8864C25.3037 14.02 25.4974 14.2089 25.632 14.4347C25.7665 14.6605 25.8372 14.9155 25.8372 15.175V21.6435C25.8372 22.1628 25.6957 22.6733 25.4264 23.1252C25.157 23.5771 24.7691 23.955 24.3004 24.2222L19.5522 26.9287C19.0602 27.2091 18.4972 27.3572 17.9235 27.3572C17.3498 27.3572 16.7868 27.2091 16.2949 26.9287L11.5466 24.2222C11.0779 23.955 10.69 23.5771 10.4206 23.1252C10.1513 22.6733 10.0098 22.1628 10.0098 21.6435V15.175C10.01 14.9154 10.0809 14.6602 10.2157 14.4344C10.3505 14.2086 10.5446 14.0198 10.779 13.8864L16.2949 10.7408Z" stroke="#5925DC" stroke-width="2.57762" stroke-linecap="round" stroke-linejoin="round"/>
<path d="M10.0098 14.3223L17.9235 18.4707M17.9235 18.4707L25.8372 14.3223M17.9235 18.4707V26.3511" stroke="#5925DC" stroke-width="2.57762" stroke-linejoin="round"/>
<path d="M10.1911 6.58984H7.61351C6.92988 6.58984 6.27425 6.84783 5.79086 7.30706C5.30746 7.76629 5.03589 8.38913 5.03589 9.03858V11.4873M25.6568 31.0772H28.2344C28.9181 31.0772 29.5737 30.8192 30.0571 30.36C30.5405 29.9008 30.8121 29.2779 30.8121 28.6285V26.1797M30.8121 11.4873V9.03858C30.8121 8.38913 30.5405 7.76629 30.0571 7.30706C29.5737 6.84783 28.9181 6.58984 28.2344 6.58984H25.6568M5.03589 26.1797V28.6285C5.03589 29.2779 5.30746 29.9008 5.79086 30.36C6.27425 30.8192 6.92988 31.0772 7.61351 31.0772H10.1911" stroke="#5925DC" stroke-width="2.17062" stroke-linecap="round" stroke-linejoin="round"/>
</svg>
